<?xml version="1.0" encoding="us-ascii" standalone="no"?><svg xmlns="http://www.w3.org/2000/svg" xmlns:xlink="http://www.w3.org/1999/xlink" contentStyleType="text/css" height="845px" preserveAspectRatio="none" style="width:2919px;height:845px;background:#FFFFFF;" version="1.1" viewBox="0 0 2919 845" width="2919px" zoomAndPan="magnify"><defs/><g><!--cluster Interfaccia--><g id="cluster_Interfaccia"><rect fill="none" height="372" rx="2.5" ry="2.5" style="stroke:#181818;stroke-width:1.0;" width="1313" x="550" y="331"/><path d="M634,331 L634,341.6094 L624,351.6094 L550,351.6094 " fill="none" style="stroke:#181818;stroke-width:1.0;"/><text fill="#000000" font-family="sans-serif" font-size="14" font-weight="bold" lengthAdjust="spacing" textLength="74" x="553" y="346.5332">Interfaccia</text></g><!--cluster MENU--><g id="cluster_MENU"><rect fill="none" height="116" rx="2.5" ry="2.5" style="stroke:#181818;stroke-width:1.0;" width="1225" x="598" y="547"/><path d="M650,547 L650,557.6094 L640,567.6094 L598,567.6094 " fill="none" style="stroke:#181818;stroke-width:1.0;"/><text fill="#000000" font-family="sans-serif" font-size="14" font-weight="bold" lengthAdjust="spacing" textLength="42" x="601" y="562.5332">MENU</text></g><!--cluster VISUALIZZATORI--><g id="cluster_VISUALIZZATORI"><rect fill="none" height="116" rx="2.5" ry="2.5" style="stroke:#181818;stroke-width:1.0;" width="841" x="598" y="391"/><path d="M719,391 L719,401.6094 L709,411.6094 L598,411.6094 " fill="none" style="stroke:#181818;stroke-width:1.0;"/><text fill="#000000" font-family="sans-serif" font-size="14" font-weight="bold" lengthAdjust="spacing" textLength="111" x="601" y="406.5332">VISUALIZZATORI</text></g><!--cluster Modello--><g id="cluster_Modello"><rect fill="none" height="508" rx="2.5" ry="2.5" style="stroke:#181818;stroke-width:1.0;" width="1010" x="1903" y="331"/><path d="M1970,331 L1970,341.6094 L1960,351.6094 L1903,351.6094 " fill="none" style="stroke:#181818;stroke-width:1.0;"/><text fill="#000000" font-family="sans-serif" font-size="14" font-weight="bold" lengthAdjust="spacing" textLength="57" x="1906" y="346.5332">Modello</text></g><!--cluster DatiStatici--><g id="cluster_DatiStatici"><rect fill="none" height="116" rx="2.5" ry="2.5" style="stroke:#181818;stroke-width:1.0;" width="922" x="1951" y="391"/><path d="M2031,391 L2031,401.6094 L2021,411.6094 L1951,411.6094 " fill="none" style="stroke:#181818;stroke-width:1.0;"/><text fill="#000000" font-family="sans-serif" font-size="14" font-weight="bold" lengthAdjust="spacing" textLength="70" x="1954" y="406.5332">DatiStatici</text></g><!--cluster DatiDinamici--><g id="cluster_DatiDinamici"><rect fill="none" height="252" rx="2.5" ry="2.5" style="stroke:#181818;stroke-width:1.0;" width="920" x="1951" y="547"/><path d="M2047,547 L2047,557.6094 L2037,567.6094 L1951,567.6094 " fill="none" style="stroke:#181818;stroke-width:1.0;"/><text fill="#000000" font-family="sans-serif" font-size="14" font-weight="bold" lengthAdjust="spacing" textLength="86" x="1954" y="562.5332">DatiDinamici</text></g><!--cluster Controllore--><g id="cluster_Controllore"><rect fill="none" height="202" rx="2.5" ry="2.5" style="stroke:#181818;stroke-width:1.0;" width="867" x="7" y="7"/><path d="M97,7 L97,17.6094 L87,27.6094 L7,27.6094 " fill="none" style="stroke:#181818;stroke-width:1.0;"/><text fill="#000000" font-family="sans-serif" font-size="14" font-weight="bold" lengthAdjust="spacing" textLength="80" x="10" y="22.5332">Controllore</text></g><g id="elem_Peppe"><path d="M1595.5,602 L1595.5,611 L1560.91,615 L1595.5,619 L1595.5,628.3516 A0,0 0 0 0 1595.5,628.3516 L1798.5,628.3516 A0,0 0 0 0 1798.5,628.3516 L1798.5,612 L1788.5,602 L1595.5,602 A0,0 0 0 0 1595.5,602 " fill="#FEFFDD" style="stroke:#181818;stroke-width:0.5;"/><path d="M1788.5,602 L1788.5,612 L1798.5,612 L1788.5,602 " fill="#FEFFDD" style="stroke:#181818;stroke-width:0.5;"/><text fill="#000000" font-family="sans-serif" font-size="13" lengthAdjust="spacing" textLength="182" x="1601.5" y="620.4951">Scelta di Inizio, Opzioni, Crediti</text></g><!--entity Menu' principale--><g id="elem_Menu' principale"><rect fill="#F1F1F1" height="47.6094" rx="2.5" ry="2.5" style="stroke:#181818;stroke-width:0.5;" width="143" x="1417.5" y="591"/><path d="M1465.1667,591 L1465.1667,596 L1458.1667,603 L1417.5,603 " fill="none" style="stroke:#181818;stroke-width:0.5;"/><text fill="#000000" font-family="sans-serif" font-size="14" lengthAdjust="spacing" textLength="103" x="1432.5" y="625.5332">Menu' principale</text></g><!--entity Menu' di opzioni--><g id="elem_Menu' di opzioni"><rect fill="#F1F1F1" height="47.6094" rx="2.5" ry="2.5" style="stroke:#181818;stroke-width:0.5;" width="141" x="1241.5" y="591"/><path d="M1288.5,591 L1288.5,596 L1281.5,603 L1241.5,603 " fill="none" style="stroke:#181818;stroke-width:0.5;"/><text fill="#000000" font-family="sans-serif" font-size="14" lengthAdjust="spacing" textLength="101" x="1256.5" y="625.5332">Menu' di opzioni</text></g><!--entity Menu' Scenario--><g id="elem_Menu' Scenario"><rect fill="#F1F1F1" height="47.6094" rx="2.5" ry="2.5" style="stroke:#181818;stroke-width:0.5;" width="138" x="1068" y="591"/><path d="M1114,591 L1114,596 L1107,603 L1068,603 " fill="none" style="stroke:#181818;stroke-width:0.5;"/><text fill="#000000" font-family="sans-serif" font-size="14" lengthAdjust="spacing" textLength="98" x="1083" y="625.5332">Menu' Scenario</text></g><!--entity Menu' dell'Evento--><g id="elem_Menu' dell'Evento"><rect fill="#F1F1F1" height="47.6094" rx="2.5" ry="2.5" style="stroke:#181818;stroke-width:0.5;" width="151" x="881.5" y="591"/><path d="M931.8333,591 L931.8333,596 L924.8333,603 L881.5,603 " fill="none" style="stroke:#181818;stroke-width:0.5;"/><text fill="#000000" font-family="sans-serif" font-size="14" lengthAdjust="spacing" textLength="111" x="896.5" y="625.5332">Menu' dell'Evento</text></g><!--entity Menu' Scelta Personaggio--><g id="elem_Menu' Scelta Personaggio"><rect fill="#F1F1F1" height="47.6094" rx="2.5" ry="2.5" style="stroke:#181818;stroke-width:0.5;" width="205" x="641.5" y="591"/><path d="M709.8333,591 L709.8333,596 L702.8333,603 L641.5,603 " fill="none" style="stroke:#181818;stroke-width:0.5;"/><text fill="#000000" font-family="sans-serif" font-size="14" lengthAdjust="spacing" textLength="165" x="656.5" y="625.5332">Menu' Scelta Personaggio</text></g><!--entity Visualizzatore Info Evento--><g id="elem_Visualizzatore Info Evento"><rect fill="#F1F1F1" height="47.6094" rx="2.5" ry="2.5" style="stroke:#181818;stroke-width:0.5;" width="201" x="1213.5" y="435"/><path d="M1280.5,435 L1280.5,440 L1273.5,447 L1213.5,447 " fill="none" style="stroke:#181818;stroke-width:0.5;"/><text fill="#000000" font-family="sans-serif" font-size="14" lengthAdjust="spacing" textLength="161" x="1228.5" y="469.5332">Visualizzatore Info Evento</text></g><!--entity Visualizzatore di inventario/statistiche--><g id="elem_Visualizzatore di inventario/statistiche"><rect fill="#F1F1F1" height="47.6094" rx="2.5" ry="2.5" style="stroke:#181818;stroke-width:0.5;" width="274" x="904" y="435"/><path d="M995.3333,435 L995.3333,440 L988.3333,447 L904,447 " fill="none" style="stroke:#181818;stroke-width:0.5;"/><text fill="#000000" font-family="sans-serif" font-size="14" lengthAdjust="spacing" textLength="234" x="919" y="469.5332">Visualizzatore di inventario/statistiche</text></g><!--entity Visualizzatore di mappa livello--><g id="elem_Visualizzatore di mappa livello"><rect fill="#F1F1F1" height="47.6094" rx="2.5" ry="2.5" style="stroke:#181818;stroke-width:0.5;" width="227" x="641.5" y="435"/><path d="M717.1667,435 L717.1667,440 L710.1667,447 L641.5,447 " fill="none" style="stroke:#181818;stroke-width:0.5;"/><text fill="#000000" font-family="sans-serif" font-size="14" lengthAdjust="spacing" textLength="187" x="656.5" y="469.5332">Visualizzatore di mappa livello</text></g><!--entity DatiEventi--><g id="elem_DatiEventi"><rect fill="#F1F1F1" height="47.6094" rx="2.5" ry="2.5" style="stroke:#181818;stroke-width:0.5;" width="104" x="2745" y="435"/><path d="M2779.6667,435 L2779.6667,440 L2772.6667,447 L2745,447 " fill="none" style="stroke:#181818;stroke-width:0.5;"/><text fill="#000000" font-family="sans-serif" font-size="14" lengthAdjust="spacing" textLength="64" x="2760" y="469.5332">DatiEventi</text></g><!--entity DatiEquip--><g id="elem_DatiEquip"><rect fill="#F1F1F1" height="47.6094" rx="2.5" ry="2.5" style="stroke:#181818;stroke-width:0.5;" width="101" x="2608.5" y="435"/><path d="M2642.1667,435 L2642.1667,440 L2635.1667,447 L2608.5,447 " fill="none" style="stroke:#181818;stroke-width:0.5;"/><text fill="#000000" font-family="sans-serif" font-size="14" lengthAdjust="spacing" textLength="61" x="2623.5" y="469.5332">DatiEquip</text></g><!--entity DatiPotenziamenti--><g id="elem_DatiPotenziamenti"><rect fill="#F1F1F1" height="47.6094" rx="2.5" ry="2.5" style="stroke:#181818;stroke-width:0.5;" width="153" x="2420.5" y="435"/><path d="M2471.5,435 L2471.5,440 L2464.5,447 L2420.5,447 " fill="none" style="stroke:#181818;stroke-width:0.5;"/><text fill="#000000" font-family="sans-serif" font-size="14" lengthAdjust="spacing" textLength="113" x="2435.5" y="469.5332">DatiPotenziamenti</text></g><!--entity DatiClassi--><g id="elem_DatiClassi"><rect fill="#F1F1F1" height="47.6094" rx="2.5" ry="2.5" style="stroke:#181818;stroke-width:0.5;" width="103" x="2282.5" y="435"/><path d="M2316.8333,435 L2316.8333,440 L2309.8333,447 L2282.5,447 " fill="none" style="stroke:#181818;stroke-width:0.5;"/><text fill="#000000" font-family="sans-serif" font-size="14" lengthAdjust="spacing" textLength="63" x="2297.5" y="469.5332">DatiClassi</text></g><!--entity DatiNemici--><g id="elem_DatiNemici"><rect fill="#F1F1F1" height="47.6094" rx="2.5" ry="2.5" style="stroke:#181818;stroke-width:0.5;" width="106" x="2141" y="435"/><path d="M2176.3333,435 L2176.3333,440 L2169.3333,447 L2141,447 " fill="none" style="stroke:#181818;stroke-width:0.5;"/><text fill="#000000" font-family="sans-serif" font-size="14" lengthAdjust="spacing" textLength="66" x="2156" y="469.5332">DatiNemici</text></g><!--entity DatiOpzioni--><g id="elem_DatiOpzioni"><rect fill="#F1F1F1" height="47.6094" rx="2.5" ry="2.5" style="stroke:#181818;stroke-width:0.5;" width="112" x="1994" y="435"/><path d="M2031.3333,435 L2031.3333,440 L2024.3333,447 L1994,447 " fill="none" style="stroke:#181818;stroke-width:0.5;"/><text fill="#000000" font-family="sans-serif" font-size="14" lengthAdjust="spacing" textLength="72" x="2009" y="469.5332">DatiOpzioni</text></g><g id="elem_GMN26"><path d="M2619,602 L2619,628.3516 A0,0 0 0 0 2619,628.3516 L2729,628.3516 L2733,726.51 L2737,628.3516 L2847,628.3516 A0,0 0 0 0 2847,628.3516 L2847,612 L2837,602 L2619,602 A0,0 0 0 0 2619,602 " fill="#FEFFDD" style="stroke:#181818;stroke-width:0.5;"/><path d="M2837,602 L2837,612 L2847,612 L2837,602 " fill="#FEFFDD" style="stroke:#181818;stroke-width:0.5;"/><text fill="#000000" font-family="sans-serif" font-size="13" lengthAdjust="spacing" textLength="207" x="2625" y="620.4951">"Progressione fino al tempo attuale"</text></g><g id="elem_GMN33"><path d="M2408.5,602 L2408.5,628.3516 A0,0 0 0 0 2408.5,628.3516 L2492,628.3516 L2496,726.51 L2500,628.3516 L2583.5,628.3516 A0,0 0 0 0 2583.5,628.3516 L2583.5,612 L2573.5,602 L2408.5,602 A0,0 0 0 0 2408.5,602 " fill="#FEFFDD" style="stroke:#181818;stroke-width:0.5;"/><path d="M2573.5,602 L2573.5,612 L2583.5,612 L2573.5,602 " fill="#FEFFDD" style="stroke:#181818;stroke-width:0.5;"/><text fill="#000000" font-family="sans-serif" font-size="13" lengthAdjust="spacing" textLength="154" x="2414.5" y="620.4951">"Dati Personaggi Runtime"</text></g><!--entity DatiHistory--><g id="elem_DatiHistory"><rect fill="#F1F1F1" height="47.6094" rx="2.5" ry="2.5" style="stroke:#181818;stroke-width:0.5;" width="108" x="2679" y="727"/><path d="M2715,727 L2715,732 L2708,739 L2679,739 " fill="none" style="stroke:#181818;stroke-width:0.5;"/><text fill="#000000" font-family="sans-serif" font-size="14" lengthAdjust="spacing" textLength="68" x="2694" y="761.5332">DatiHistory</text></g><!--entity DatiScenari--><g id="elem_DatiScenari"><rect fill="#F1F1F1" height="47.6094" rx="2.5" ry="2.5" style="stroke:#181818;stroke-width:0.5;" width="113" x="2260.5" y="591"/><path d="M2298.1667,591 L2298.1667,596 L2291.1667,603 L2260.5,603 " fill="none" style="stroke:#181818;stroke-width:0.5;"/><text fill="#000000" font-family="sans-serif" font-size="14" lengthAdjust="spacing" textLength="73" x="2275.5" y="625.5332">DatiScenari</text></g><!--entity DatiBoss--><g id="elem_DatiBoss"><rect fill="#F1F1F1" height="47.6094" rx="2.5" ry="2.5" style="stroke:#181818;stroke-width:0.5;" width="96" x="2129" y="591"/><path d="M2161,591 L2161,596 L2154,603 L2129,603 " fill="none" style="stroke:#181818;stroke-width:0.5;"/><text fill="#000000" font-family="sans-serif" font-size="14" lengthAdjust="spacing" textLength="56" x="2144" y="625.5332">DatiBoss</text></g><!--entity DatiLivelli--><g id="elem_DatiLivelli"><rect fill="#F1F1F1" height="47.6094" rx="2.5" ry="2.5" style="stroke:#181818;stroke-width:0.5;" width="100" x="1994" y="591"/><path d="M2027.3333,591 L2027.3333,596 L2020.3333,603 L1994,603 " fill="none" style="stroke:#181818;stroke-width:0.5;"/><text fill="#000000" font-family="sans-serif" font-size="14" lengthAdjust="spacing" textLength="60" x="2009" y="625.5332">DatiLivelli</text></g><!--entity DatiGiocatori--><g id="elem_DatiGiocatori"><rect fill="#F1F1F1" height="47.6094" rx="2.5" ry="2.5" style="stroke:#181818;stroke-width:0.5;" width="122" x="2435" y="727"/><path d="M2475.6667,727 L2475.6667,732 L2468.6667,739 L2435,739 " fill="none" style="stroke:#181818;stroke-width:0.5;"/><text fill="#000000" font-family="sans-serif" font-size="14" lengthAdjust="spacing" textLength="82" x="2450" y="761.5332">DatiGiocatori</text></g><g id="elem_GMN39"><path d="M723,51 L723,77.3516 A0,0 0 0 0 723,77.3516 L768.06,77.3516 L747.52,136.81 L776.06,77.3516 L831,77.3516 A0,0 0 0 0 831,77.3516 L831,61 L821,51 L723,51 A0,0 0 0 0 723,51 " fill="#FEFFDD" style="stroke:#181818;stroke-width:0.5;"/><path d="M821,51 L821,61 L831,61 L821,51 " fill="#FEFFDD" style="stroke:#181818;stroke-width:0.5;"/><text fill="#000000" font-family="sans-serif" font-size="13" lengthAdjust="spacing" textLength="87" x="729" y="69.4951">"Loop di gioco"</text></g><g id="elem_GMN43"><path d="M386,51 L386,77.3516 A0,0 0 0 0 386,77.3516 L531.99,77.3516 L530.95,136.81 L539.99,77.3516 L688,77.3516 A0,0 0 0 0 688,77.3516 L688,61 L678,51 L386,51 A0,0 0 0 0 386,51 " fill="#FEFFDD" style="stroke:#181818;stroke-width:0.5;"/><path d="M678,51 L678,61 L688,61 L678,51 " fill="#FEFFDD" style="stroke:#181818;stroke-width:0.5;"/><text fill="#000000" font-family="sans-serif" font-size="13" lengthAdjust="spacing" textLength="281" x="392" y="69.4951">"collegamento con il Model - sfrutta ControllerIO"</text></g><g id="elem_GMN47"><path d="M221.5,51 L221.5,77.3516 A0,0 0 0 0 221.5,77.3516 L286.43,77.3516 L312.46,136.81 L294.43,77.3516 L350.5,77.3516 A0,0 0 0 0 350.5,77.3516 L350.5,61 L340.5,51 L221.5,51 A0,0 0 0 0 221.5,51 " fill="#FEFFDD" style="stroke:#181818;stroke-width:0.5;"/><path d="M340.5,51 L340.5,61 L350.5,61 L340.5,51 " fill="#FEFFDD" style="stroke:#181818;stroke-width:0.5;"/><text fill="#000000" font-family="sans-serif" font-size="13" lengthAdjust="spacing" textLength="108" x="227.5" y="69.4951">"Input con l'utente"</text></g><g id="elem_GMN51"><path d="M31.5,51 L31.5,77.3516 A0,0 0 0 0 31.5,77.3516 L106.14,77.3516 L115.8,136.81 L114.14,77.3516 L186.5,77.3516 A0,0 0 0 0 186.5,77.3516 L186.5,61 L176.5,51 L31.5,51 A0,0 0 0 0 31.5,51 " fill="#FEFFDD" style="stroke:#181818;stroke-width:0.5;"/><path d="M176.5,51 L176.5,61 L186.5,61 L176.5,51 " fill="#FEFFDD" style="stroke:#181818;stroke-width:0.5;"/><text fill="#000000" font-family="sans-serif" font-size="13" lengthAdjust="spacing" textLength="134" x="37.5" y="69.4951">"Output sullo schermo"</text></g><!--entity ControllerGameLogic--><g id="elem_ControllerGameLogic"><rect fill="#F1F1F1" height="47.6094" rx="2.5" ry="2.5" style="stroke:#181818;stroke-width:0.5;" width="174" x="651" y="137"/><path d="M709,137 L709,142 L702,149 L651,149 " fill="none" style="stroke:#181818;stroke-width:0.5;"/><text fill="#000000" font-family="sans-serif" font-size="14" lengthAdjust="spacing" textLength="134" x="666" y="171.5332">ControllerGameLogic</text></g><!--entity ControllerMiddleware--><g id="elem_ControllerMiddleware"><rect fill="#F1F1F1" height="47.6094" rx="2.5" ry="2.5" style="stroke:#181818;stroke-width:0.5;" width="173" x="442.5" y="137"/><path d="M500.1667,137 L500.1667,142 L493.1667,149 L442.5,149 " fill="none" style="stroke:#181818;stroke-width:0.5;"/><text fill="#000000" font-family="sans-serif" font-size="14" lengthAdjust="spacing" textLength="133" x="457.5" y="171.5332">ControllerMiddleware</text></g><!--entity ControllerUserInput--><g id="elem_ControllerUserInput"><rect fill="#F1F1F1" height="47.6094" rx="2.5" ry="2.5" style="stroke:#181818;stroke-width:0.5;" width="162" x="240" y="137"/><path d="M294,137 L294,142 L287,149 L240,149 " fill="none" style="stroke:#181818;stroke-width:0.5;"/><text fill="#000000" font-family="sans-serif" font-size="14" lengthAdjust="spacing" textLength="122" x="255" y="171.5332">ControllerUserInput</text></g><!--entity ControllerViewOutput--><g id="elem_ControllerViewOutput"><rect fill="#F1F1F1" height="47.6094" rx="2.5" ry="2.5" style="stroke:#181818;stroke-width:0.5;" width="174" x="31" y="137"/><path d="M89,137 L89,142 L82,149 L31,149 " fill="none" style="stroke:#181818;stroke-width:0.5;"/><text fill="#000000" font-family="sans-serif" font-size="14" lengthAdjust="spacing" textLength="134" x="46" y="171.5332">ControllerViewOutput</text></g><!--reverse link VISUALIZZATORI to MENU--><!--reverse link DatiStatici to DatiDinamici--><!--reverse link Controllore to Interfaccia--><!--reverse link Controllore to Modello--><!--SRC=[ZLVRRXit47tNLmpq8WcL7BIFGb30aOraKLjo8oT1K_I1Nb4oWTtbbijLO1V-btv3Vo4_rZCazwALreg1s0evdCkPCnUDg2o4aNJxUK7ZMxsHoUopajzc2vrPevD4cibyCA8PkRivROGL3wAGxembvwGoAyrMnB4Ij3DYgsBXRXiLSrhhhVt6TlRIQ9AK6vqRfGSGZ99QKaC0tdp_bpPghmeDrJICXPKxRPJ48SM9A0ern3EudMqq2HC_AYkjBOqWGOKrmYfAzQPCOEw23JZF4prrxi9sszf6xdMcATS8WMATbXcynpdK40IqKt0bQCk7PIR8o4GyAvr94ac2SvMnaeG3si4BH8G7zpAJa1UKIc13YqJXxsmj3QBt4LSmKbv-_uzaKR3y4Dgi7j9OF-mdR3TQNxzVHiiLNTAxczNYjvi_QF7X6lzRhY9QH7GNNIuMqGe2KIqS3KPuUcSqS4eLvS1Bx7QAa_ZpXAuaR2ZOKeZaxr8L2cWjLqlQbXc79H95uqndmDeW7E43IEIEKKN4d7VyDDAMauNu2rLOcOe9CHp11l2KbAe2gJ69ym0_OeDmPPehxQzSMlSoqJ7hcb8EBccJYYoM9EEO_rrSNBYWVkdnl-MxCvaWLG0KPD3coLiT6nLhiq5ImH6Wp2oYBuzwzkLHMFnwOiTtK70PnpAtplh2W5X62RRDMMNwJ66XuBnQAnrzc4hpK0n52HUUduNLFgeYbfamofUFpCeH7yeztgYU5wzUgenleL2_AIpoKLWLFygMTbHK5gjS9FxmHZyyFD5c9E0hVFw9_KciO8GBe0LIw1vBgSXpGANsN3Sj0pfdd9M7OqPtm9WnyruZTSov1mNuLPedahaJQWNbb09CMdDvojtJOB352HWVDRrZIFyCY4QibU7bijpNddar7bEE0P-2CpI-3yfRTJs1fc3XzdhvoQjcvUlwUPGfl9_IogkP8jromsp2ZnFEq1DeUFx1a4G1f_DSkcULsKv6s0Lt_-9-dxYV_ThIqdYA54YAKc3hmLHlWWF7rXfGEjPQsffylQa0H9Cj0NPWgpxMkmut_LhPHmrUUG_HtNp3T9hfcisTKClFHlxoDSq2_HFbAa_wnK9t3PyFzBmCWhB0ACd5twLK8RDduLabpr7fSxJ-T7aJVVrwUR_w63MakjM5cnSSy5Pp6X2r0zbDi5mOLAhcUHGUZ7ylkRAyMJmG2K-ASZHfnzWfouXLzw3LEC2DeN14s24FG2Hshr_HszjOUgrmPoXgCWNQyDGWhhLNW-ZsbewDOEZLqD_EDlfRDZlYPfNmqQbgw3ngbLtxnIa-_TZBkdMt7lJEW_3oB3J7aNQzwrDqv4lNou73-eZGRsT_FgeDXjfVrJjkdeCNt-xNp8tOJwShtWTu5x9Or4WqNMMElfdAASXHn5EoAjU9tYanfJ7lM9ZJW6w2-P2A7LQdKxhG57YovnoYsp_qAIb5bRwq7fb78dvRd58cqmF7gpdcJrGcwkiFoYqD8HWupUiJFaY4bKqy31NXjoMMJkKFts7q-Q7hikULlG_b1zcF9TIbqWixAdFAU0rKZgYbpKiBSvYepHG5Sg43kXPYnQIUcs6dhMQcYmerMwz2A4Qt2eskmg8vQjeO2uTSLZsiTNCTk7DGcErxpat_zLqxA_rY2x_7zzulNSRwxrSdvbme_oCweRrZmQuM2Ew938unlDeUeb9HuGGiWHWTZzoEO7LEUdieDgSXLl2TgGnZQyLtbOIm8-VuO3dzQ25TAu5R_N4pp_fl0_agzqD3VHc43ot9cfhd0ce4v_wWrO0eiBhklOVKEkec1n1NNQNvblWUtjsWMSITyrieIIH_U-nSVCAI7sKedCuvB-ehLr5rlRG6kaUdIVm91m8e3Ca18AT40SkDndr5hM6FyYQAyzfRib0VyzdEjq8GDoEL-E-q2BhOcX9Vqrh1Hwi-3sgupZlGYCvvH-VUn8QJKMcvQleiDC2VDz6IXGt_YOhIhqMFsDYqeyXXvjxE3Zarcnr-XVW1yQfp_Wy0]--></g></svg>