<?xml version="1.0" encoding="us-ascii" standalone="no"?><svg xmlns="http://www.w3.org/2000/svg" xmlns:xlink="http://www.w3.org/1999/xlink" contentStyleType="text/css" height="1099px" preserveAspectRatio="none" style="width:3219px;height:1099px;background:#FFFFFF;" version="1.1" viewBox="0 0 3219 1099" width="3219px" zoomAndPan="magnify"><defs/><g><!--cluster Interfaccia--><g id="cluster_Interfaccia"><rect fill="none" height="381" rx="2.5" ry="2.5" style="stroke:#181818;stroke-width:1.0;" width="1313" x="7" y="7"/><path d="M91,7 L91,17.6094 L81,27.6094 L7,27.6094 " fill="none" style="stroke:#181818;stroke-width:1.0;"/><text fill="#000000" font-family="sans-serif" font-size="14" font-weight="bold" lengthAdjust="spacing" textLength="74" x="10" y="22.5332">Interfaccia</text></g><!--cluster MENU--><g id="cluster_MENU"><rect fill="none" height="116" rx="2.5" ry="2.5" style="stroke:#181818;stroke-width:1.0;" width="1225" x="47" y="232"/><path d="M99,232 L99,242.6094 L89,252.6094 L47,252.6094 " fill="none" style="stroke:#181818;stroke-width:1.0;"/><text fill="#000000" font-family="sans-serif" font-size="14" font-weight="bold" lengthAdjust="spacing" textLength="42" x="50" y="247.5332">MENU</text></g><!--cluster VISUALIZZATORI--><g id="cluster_VISUALIZZATORI"><rect fill="none" height="116" rx="2.5" ry="2.5" style="stroke:#181818;stroke-width:1.0;" width="841" x="47" y="67"/><path d="M168,67 L168,77.6094 L158,87.6094 L47,87.6094 " fill="none" style="stroke:#181818;stroke-width:1.0;"/><text fill="#000000" font-family="sans-serif" font-size="14" font-weight="bold" lengthAdjust="spacing" textLength="111" x="50" y="82.5332">VISUALIZZATORI</text></g><!--cluster Modello--><g id="cluster_Modello"><rect fill="none" height="639" rx="2.5" ry="2.5" style="stroke:#181818;stroke-width:1.0;" width="1010" x="2203" y="454"/><path d="M2270,454 L2270,464.6094 L2260,474.6094 L2203,474.6094 " fill="none" style="stroke:#181818;stroke-width:1.0;"/><text fill="#000000" font-family="sans-serif" font-size="14" font-weight="bold" lengthAdjust="spacing" textLength="57" x="2206" y="469.5332">Modello</text></g><!--cluster DatiStatici--><g id="cluster_DatiStatici"><rect fill="none" height="116" rx="2.5" ry="2.5" style="stroke:#181818;stroke-width:1.0;" width="922" x="2251" y="514"/><path d="M2331,514 L2331,524.6094 L2321,534.6094 L2251,534.6094 " fill="none" style="stroke:#181818;stroke-width:1.0;"/><text fill="#000000" font-family="sans-serif" font-size="14" font-weight="bold" lengthAdjust="spacing" textLength="70" x="2254" y="529.5332">DatiStatici</text></g><!--cluster DatiDinamici--><g id="cluster_DatiDinamici"><rect fill="none" height="357" rx="2.5" ry="2.5" style="stroke:#181818;stroke-width:1.0;" width="705" x="2461" y="696"/><path d="M2557,696 L2557,706.6094 L2547,716.6094 L2461,716.6094 " fill="none" style="stroke:#181818;stroke-width:1.0;"/><text fill="#000000" font-family="sans-serif" font-size="14" font-weight="bold" lengthAdjust="spacing" textLength="86" x="2464" y="711.5332">DatiDinamici</text></g><!--cluster DatiLivelli--><g id="cluster_DatiLivelli"><rect fill="none" height="257" rx="2.5" ry="2.5" style="stroke:#181818;stroke-width:1.0;" width="170" x="2956" y="756"/><path d="M3035,756 L3035,766.6094 L3025,776.6094 L2956,776.6094 " fill="none" style="stroke:#181818;stroke-width:1.0;"/><text fill="#000000" font-family="sans-serif" font-size="14" font-weight="bold" lengthAdjust="spacing" textLength="69" x="2959" y="771.5332">DatiLivelli</text></g><!--cluster Controllore--><g id="cluster_Controllore"><rect fill="none" height="488" rx="2.5" ry="2.5" style="stroke:#181818;stroke-width:1.0;" width="779" x="1384" y="525"/><path d="M1474,525 L1474,535.6094 L1464,545.6094 L1384,545.6094 " fill="none" style="stroke:#181818;stroke-width:1.0;"/><text fill="#000000" font-family="sans-serif" font-size="14" font-weight="bold" lengthAdjust="spacing" textLength="80" x="1387" y="540.5332">Controllore</text></g><g id="elem_Peppe"><path d="M1044.5,287 L1044.5,296 L1009.91,300 L1044.5,304 L1044.5,313.3516 A0,0 0 0 0 1044.5,313.3516 L1247.5,313.3516 A0,0 0 0 0 1247.5,313.3516 L1247.5,297 L1237.5,287 L1044.5,287 A0,0 0 0 0 1044.5,287 " fill="#FEFFDD" style="stroke:#181818;stroke-width:0.5;"/><path d="M1237.5,287 L1237.5,297 L1247.5,297 L1237.5,287 " fill="#FEFFDD" style="stroke:#181818;stroke-width:0.5;"/><text fill="#000000" font-family="sans-serif" font-size="13" lengthAdjust="spacing" textLength="182" x="1050.5" y="305.4951">Scelta di Inizio, Opzioni, Crediti</text></g><!--entity Menu' principale--><g id="elem_Menu' principale"><rect fill="#F1F1F1" height="47.6094" rx="2.5" ry="2.5" style="stroke:#181818;stroke-width:0.5;" width="143" x="866.5" y="276"/><path d="M914.1667,276 L914.1667,281 L907.1667,288 L866.5,288 " fill="none" style="stroke:#181818;stroke-width:0.5;"/><text fill="#000000" font-family="sans-serif" font-size="14" lengthAdjust="spacing" textLength="103" x="881.5" y="310.5332">Menu' principale</text></g><!--entity Menu' di opzioni--><g id="elem_Menu' di opzioni"><rect fill="#F1F1F1" height="47.6094" rx="2.5" ry="2.5" style="stroke:#181818;stroke-width:0.5;" width="141" x="690.5" y="276"/><path d="M737.5,276 L737.5,281 L730.5,288 L690.5,288 " fill="none" style="stroke:#181818;stroke-width:0.5;"/><text fill="#000000" font-family="sans-serif" font-size="14" lengthAdjust="spacing" textLength="101" x="705.5" y="310.5332">Menu' di opzioni</text></g><!--entity Menu' Scenario--><g id="elem_Menu' Scenario"><rect fill="#F1F1F1" height="47.6094" rx="2.5" ry="2.5" style="stroke:#181818;stroke-width:0.5;" width="138" x="517" y="276"/><path d="M563,276 L563,281 L556,288 L517,288 " fill="none" style="stroke:#181818;stroke-width:0.5;"/><text fill="#000000" font-family="sans-serif" font-size="14" lengthAdjust="spacing" textLength="98" x="532" y="310.5332">Menu' Scenario</text></g><!--entity Menu' dell'Evento--><g id="elem_Menu' dell'Evento"><rect fill="#F1F1F1" height="47.6094" rx="2.5" ry="2.5" style="stroke:#181818;stroke-width:0.5;" width="151" x="330.5" y="276"/><path d="M380.8333,276 L380.8333,281 L373.8333,288 L330.5,288 " fill="none" style="stroke:#181818;stroke-width:0.5;"/><text fill="#000000" font-family="sans-serif" font-size="14" lengthAdjust="spacing" textLength="111" x="345.5" y="310.5332">Menu' dell'Evento</text></g><!--entity Menu' Scelta Personaggio--><g id="elem_Menu' Scelta Personaggio"><rect fill="#F1F1F1" height="47.6094" rx="2.5" ry="2.5" style="stroke:#181818;stroke-width:0.5;" width="205" x="90.5" y="276"/><path d="M158.8333,276 L158.8333,281 L151.8333,288 L90.5,288 " fill="none" style="stroke:#181818;stroke-width:0.5;"/><text fill="#000000" font-family="sans-serif" font-size="14" lengthAdjust="spacing" textLength="165" x="105.5" y="310.5332">Menu' Scelta Personaggio</text></g><!--entity Visualizzatore Info Evento--><g id="elem_Visualizzatore Info Evento"><rect fill="#F1F1F1" height="47.6094" rx="2.5" ry="2.5" style="stroke:#181818;stroke-width:0.5;" width="201" x="662.5" y="111"/><path d="M729.5,111 L729.5,116 L722.5,123 L662.5,123 " fill="none" style="stroke:#181818;stroke-width:0.5;"/><text fill="#000000" font-family="sans-serif" font-size="14" lengthAdjust="spacing" textLength="161" x="677.5" y="145.5332">Visualizzatore Info Evento</text></g><!--entity Visualizzatore di inventario/statistiche--><g id="elem_Visualizzatore di inventario/statistiche"><rect fill="#F1F1F1" height="47.6094" rx="2.5" ry="2.5" style="stroke:#181818;stroke-width:0.5;" width="274" x="353" y="111"/><path d="M444.3333,111 L444.3333,116 L437.3333,123 L353,123 " fill="none" style="stroke:#181818;stroke-width:0.5;"/><text fill="#000000" font-family="sans-serif" font-size="14" lengthAdjust="spacing" textLength="234" x="368" y="145.5332">Visualizzatore di inventario/statistiche</text></g><!--entity Visualizzatore di mappa livello--><g id="elem_Visualizzatore di mappa livello"><rect fill="#F1F1F1" height="47.6094" rx="2.5" ry="2.5" style="stroke:#181818;stroke-width:0.5;" width="227" x="90.5" y="111"/><path d="M166.1667,111 L166.1667,116 L159.1667,123 L90.5,123 " fill="none" style="stroke:#181818;stroke-width:0.5;"/><text fill="#000000" font-family="sans-serif" font-size="14" lengthAdjust="spacing" textLength="187" x="105.5" y="145.5332">Visualizzatore di mappa livello</text></g><!--entity DatiEventi--><g id="elem_DatiEventi"><rect fill="#F1F1F1" height="47.6094" rx="2.5" ry="2.5" style="stroke:#181818;stroke-width:0.5;" width="104" x="3045" y="558"/><path d="M3079.6667,558 L3079.6667,563 L3072.6667,570 L3045,570 " fill="none" style="stroke:#181818;stroke-width:0.5;"/><text fill="#000000" font-family="sans-serif" font-size="14" lengthAdjust="spacing" textLength="64" x="3060" y="592.5332">DatiEventi</text></g><!--entity DatiEquip--><g id="elem_DatiEquip"><rect fill="#F1F1F1" height="47.6094" rx="2.5" ry="2.5" style="stroke:#181818;stroke-width:0.5;" width="101" x="2767.5" y="558"/><path d="M2801.1667,558 L2801.1667,563 L2794.1667,570 L2767.5,570 " fill="none" style="stroke:#181818;stroke-width:0.5;"/><text fill="#000000" font-family="sans-serif" font-size="14" lengthAdjust="spacing" textLength="61" x="2782.5" y="592.5332">DatiEquip</text></g><!--entity DatiPotenziamenti--><g id="elem_DatiPotenziamenti"><rect fill="#F1F1F1" height="47.6094" rx="2.5" ry="2.5" style="stroke:#181818;stroke-width:0.5;" width="153" x="2441.5" y="558"/><path d="M2492.5,558 L2492.5,563 L2485.5,570 L2441.5,570 " fill="none" style="stroke:#181818;stroke-width:0.5;"/><text fill="#000000" font-family="sans-serif" font-size="14" lengthAdjust="spacing" textLength="113" x="2456.5" y="592.5332">DatiPotenziamenti</text></g><!--entity DatiClassi--><g id="elem_DatiClassi"><rect fill="#F1F1F1" height="47.6094" rx="2.5" ry="2.5" style="stroke:#181818;stroke-width:0.5;" width="103" x="2629.5" y="558"/><path d="M2663.8333,558 L2663.8333,563 L2656.8333,570 L2629.5,570 " fill="none" style="stroke:#181818;stroke-width:0.5;"/><text fill="#000000" font-family="sans-serif" font-size="14" lengthAdjust="spacing" textLength="63" x="2644.5" y="592.5332">DatiClassi</text></g><!--entity DatiNemici--><g id="elem_DatiNemici"><rect fill="#F1F1F1" height="47.6094" rx="2.5" ry="2.5" style="stroke:#181818;stroke-width:0.5;" width="106" x="2904" y="558"/><path d="M2939.3333,558 L2939.3333,563 L2932.3333,570 L2904,570 " fill="none" style="stroke:#181818;stroke-width:0.5;"/><text fill="#000000" font-family="sans-serif" font-size="14" lengthAdjust="spacing" textLength="66" x="2919" y="592.5332">DatiNemici</text></g><!--entity DatiOpzioni--><g id="elem_DatiOpzioni"><rect fill="#F1F1F1" height="47.6094" rx="2.5" ry="2.5" style="stroke:#181818;stroke-width:0.5;" width="112" x="2294" y="558"/><path d="M2331.3333,558 L2331.3333,563 L2324.3333,570 L2294,570 " fill="none" style="stroke:#181818;stroke-width:0.5;"/><text fill="#000000" font-family="sans-serif" font-size="14" lengthAdjust="spacing" textLength="72" x="2309" y="592.5332">DatiOpzioni</text></g><g id="elem_GMN26"><path d="M2704,952 L2704,978.3516 A0,0 0 0 0 2704,978.3516 L2932,978.3516 A0,0 0 0 0 2932,978.3516 L2932,962 L2922,952 L2822.79,952 L2825.49,848.27 L2814.79,952 L2704,952 A0,0 0 0 0 2704,952 " fill="#FEFFDD" style="stroke:#181818;stroke-width:0.5;"/><path d="M2922,952 L2922,962 L2932,962 L2922,952 " fill="#FEFFDD" style="stroke:#181818;stroke-width:0.5;"/><text fill="#000000" font-family="sans-serif" font-size="13" lengthAdjust="spacing" textLength="207" x="2710" y="970.4951">"Progressione fino al tempo attuale"</text></g><g id="elem_GMN30"><path d="M2493.5,952 L2493.5,978.3516 A0,0 0 0 0 2493.5,978.3516 L2668.5,978.3516 A0,0 0 0 0 2668.5,978.3516 L2668.5,962 L2658.5,952 L2589.55,952 L2624.3,848.27 L2581.55,952 L2493.5,952 A0,0 0 0 0 2493.5,952 " fill="#FEFFDD" style="stroke:#181818;stroke-width:0.5;"/><path d="M2658.5,952 L2658.5,962 L2668.5,962 L2658.5,952 " fill="#FEFFDD" style="stroke:#181818;stroke-width:0.5;"/><text fill="#000000" font-family="sans-serif" font-size="13" lengthAdjust="spacing" textLength="154" x="2499.5" y="970.4951">"Dati Personaggi Runtime"</text></g><!--entity DatiHistory--><g id="elem_DatiHistory"><rect fill="#F1F1F1" height="47.6094" rx="2.5" ry="2.5" style="stroke:#181818;stroke-width:0.5;" width="108" x="2773" y="800"/><path d="M2809,800 L2809,805 L2802,812 L2773,812 " fill="none" style="stroke:#181818;stroke-width:0.5;"/><text fill="#000000" font-family="sans-serif" font-size="14" lengthAdjust="spacing" textLength="68" x="2788" y="834.5332">DatiHistory</text></g><!--entity DatiGiocatori--><g id="elem_DatiGiocatori"><rect fill="#F1F1F1" height="47.6094" rx="2.5" ry="2.5" style="stroke:#181818;stroke-width:0.5;" width="122" x="2572" y="800"/><path d="M2612.6667,800 L2612.6667,805 L2605.6667,812 L2572,812 " fill="none" style="stroke:#181818;stroke-width:0.5;"/><text fill="#000000" font-family="sans-serif" font-size="14" lengthAdjust="spacing" textLength="82" x="2587" y="834.5332">DatiGiocatori</text></g><!--entity DatiBoss--><g id="elem_DatiBoss"><rect fill="#F1F1F1" height="47.6094" rx="2.5" ry="2.5" style="stroke:#181818;stroke-width:0.5;" width="96" x="2999" y="800"/><path d="M3031,800 L3031,805 L3024,812 L2999,812 " fill="none" style="stroke:#181818;stroke-width:0.5;"/><text fill="#000000" font-family="sans-serif" font-size="14" lengthAdjust="spacing" textLength="56" x="3014" y="834.5332">DatiBoss</text></g><!--entity DatiScenari--><g id="elem_DatiScenari"><rect fill="#F1F1F1" height="47.6094" rx="2.5" ry="2.5" style="stroke:#181818;stroke-width:0.5;" width="113" x="2988.5" y="941"/><path d="M3026.1667,941 L3026.1667,946 L3019.1667,953 L2988.5,953 " fill="none" style="stroke:#181818;stroke-width:0.5;"/><text fill="#000000" font-family="sans-serif" font-size="14" lengthAdjust="spacing" textLength="73" x="3003.5" y="975.5332">DatiScenari</text></g><g id="elem_GMN53"><path d="M2031,811 L2031,837.3516 A0,0 0 0 0 2031,837.3516 L2056.55,837.3516 L1850.51,941 L2064.55,837.3516 L2139,837.3516 A0,0 0 0 0 2139,837.3516 L2139,821 L2129,811 L2031,811 A0,0 0 0 0 2031,811 " fill="#FEFFDD" style="stroke:#181818;stroke-width:0.5;"/><path d="M2129,811 L2129,821 L2139,821 L2129,811 " fill="#FEFFDD" style="stroke:#181818;stroke-width:0.5;"/><text fill="#000000" font-family="sans-serif" font-size="13" lengthAdjust="spacing" textLength="87" x="2037" y="829.4951">"Loop di gioco"</text></g><g id="elem_GMN57"><path d="M1794,569 L1794,595.3516 A0,0 0 0 0 1794,595.3516 L1939.17,595.3516 L1912.48,799.81 L1947.17,595.3516 L2096,595.3516 A0,0 0 0 0 2096,595.3516 L2096,579 L2086,569 L1794,569 A0,0 0 0 0 1794,569 " fill="#FEFFDD" style="stroke:#181818;stroke-width:0.5;"/><path d="M2086,569 L2086,579 L2096,579 L2086,569 " fill="#FEFFDD" style="stroke:#181818;stroke-width:0.5;"/><text fill="#000000" font-family="sans-serif" font-size="13" lengthAdjust="spacing" textLength="281" x="1800" y="587.4951">"collegamento con il Model - sfrutta ControllerIO"</text></g><g id="elem_GMN61"><path d="M1432.5,569 L1432.5,595.3516 A0,0 0 0 0 1432.5,595.3516 L1493,595.3516 L1497,799.81 L1501,595.3516 L1561.5,595.3516 A0,0 0 0 0 1561.5,595.3516 L1561.5,579 L1551.5,569 L1432.5,569 A0,0 0 0 0 1432.5,569 " fill="#FEFFDD" style="stroke:#181818;stroke-width:0.5;"/><path d="M1551.5,569 L1551.5,579 L1561.5,579 L1551.5,569 " fill="#FEFFDD" style="stroke:#181818;stroke-width:0.5;"/><text fill="#000000" font-family="sans-serif" font-size="13" lengthAdjust="spacing" textLength="108" x="1438.5" y="587.4951">"Input con l'utente"</text></g><g id="elem_GMN65"><path d="M1603.5,569 L1603.5,595.3516 A0,0 0 0 0 1603.5,595.3516 L1677.97,595.3516 L1698.16,799.81 L1685.97,595.3516 L1758.5,595.3516 A0,0 0 0 0 1758.5,595.3516 L1758.5,579 L1748.5,569 L1603.5,569 A0,0 0 0 0 1603.5,569 " fill="#FEFFDD" style="stroke:#181818;stroke-width:0.5;"/><path d="M1748.5,569 L1748.5,579 L1758.5,579 L1748.5,569 " fill="#FEFFDD" style="stroke:#181818;stroke-width:0.5;"/><text fill="#000000" font-family="sans-serif" font-size="13" lengthAdjust="spacing" textLength="134" x="1609.5" y="587.4951">"Output sullo schermo"</text></g><!--entity ControllerGameLogic--><g id="elem_ControllerGameLogic"><rect fill="#F1F1F1" height="47.6094" rx="2.5" ry="2.5" style="stroke:#181818;stroke-width:0.5;" width="174" x="1717" y="941"/><path d="M1775,941 L1775,946 L1768,953 L1717,953 " fill="none" style="stroke:#181818;stroke-width:0.5;"/><text fill="#000000" font-family="sans-serif" font-size="14" lengthAdjust="spacing" textLength="134" x="1732" y="975.5332">ControllerGameLogic</text></g><!--entity ControllerMiddleware--><g id="elem_ControllerMiddleware"><rect fill="#F1F1F1" height="47.6094" rx="2.5" ry="2.5" style="stroke:#181818;stroke-width:0.5;" width="173" x="1822.5" y="800"/><path d="M1880.1667,800 L1880.1667,805 L1873.1667,812 L1822.5,812 " fill="none" style="stroke:#181818;stroke-width:0.5;"/><text fill="#000000" font-family="sans-serif" font-size="14" lengthAdjust="spacing" textLength="133" x="1837.5" y="834.5332">ControllerMiddleware</text></g><!--entity ControllerUserInput--><g id="elem_ControllerUserInput"><rect fill="#F1F1F1" height="47.6094" rx="2.5" ry="2.5" style="stroke:#181818;stroke-width:0.5;" width="162" x="1416" y="800"/><path d="M1470,800 L1470,805 L1463,812 L1416,812 " fill="none" style="stroke:#181818;stroke-width:0.5;"/><text fill="#000000" font-family="sans-serif" font-size="14" lengthAdjust="spacing" textLength="122" x="1431" y="834.5332">ControllerUserInput</text></g><!--entity ControllerViewOutput--><g id="elem_ControllerViewOutput"><rect fill="#F1F1F1" height="47.6094" rx="2.5" ry="2.5" style="stroke:#181818;stroke-width:0.5;" width="174" x="1613" y="800"/><path d="M1671,800 L1671,805 L1664,812 L1613,812 " fill="none" style="stroke:#181818;stroke-width:0.5;"/><text fill="#000000" font-family="sans-serif" font-size="14" lengthAdjust="spacing" textLength="134" x="1628" y="834.5332">ControllerViewOutput</text></g><!--entity Utente--><g id="elem_Utente"><ellipse cx="1339" cy="934.5" fill="#F1F1F1" rx="8" ry="8" style="stroke:#181818;stroke-width:0.5;"/><path d="M1339,942.5 L1339,969.5 M1326,950.5 L1352,950.5 M1339,969.5 L1326,984.5 M1339,969.5 L1352,984.5 " fill="none" style="stroke:#181818;stroke-width:0.5;"/><text fill="#000000" font-family="sans-serif" font-size="14" lengthAdjust="spacing" textLength="41" x="1318.5" y="1000.5332">Utente</text></g><!--reverse link VISUALIZZATORI to MENU--><!--reverse link DatiClassi to DatiGiocatori--><g id="link_DatiClassi_DatiGiocatori"><path d="M2675.2236,611.8935 C2666.0736,657.6535 2646.86,753.72 2637.66,799.7 " fill="none" id="DatiClassi-backto-DatiGiocatori" style="stroke:#181818;stroke-width:1.0;"/><polygon fill="#181818" points="2676.4,606.01,2670.713,614.051,2675.4196,610.9129,2678.5577,615.6196,2676.4,606.01" style="stroke:#181818;stroke-width:1.0;"/><text fill="#000000" font-family="sans-serif" font-size="13" lengthAdjust="spacing" textLength="42" x="2666" y="668.4951">&#171;uses&#187;</text></g><!--reverse link DatiPotenziamenti to DatiGiocatori--><g id="link_DatiPotenziamenti_DatiGiocatori"><path d="M2533.2521,611.6655 C2543.5721,631.2055 2555.69,654.6 2568,680 C2588.28,721.84 2610.38,771.38 2622.88,799.8 " fill="none" id="DatiPotenziamenti-backto-DatiGiocatori" style="stroke:#181818;stroke-width:1.0;"/><polygon fill="#181818" points="2530.45,606.36,2531.1161,616.1863,2532.7851,610.7812,2538.1901,612.4502,2530.45,606.36" style="stroke:#181818;stroke-width:1.0;"/><text fill="#000000" font-family="sans-serif" font-size="13" lengthAdjust="spacing" textLength="42" x="2563" y="668.4951">&#171;uses&#187;</text></g><!--reverse link DatiEquip to DatiGiocatori--><g id="link_DatiEquip_DatiGiocatori"><path d="M2796.5972,610.7622 C2761.3272,656.5222 2686.41,753.72 2650.96,799.7 " fill="none" id="DatiEquip-backto-DatiGiocatori" style="stroke:#181818;stroke-width:1.0;"/><polygon fill="#181818" points="2800.26,606.01,2791.5976,610.6965,2797.2076,609.9702,2797.9339,615.5802,2800.26,606.01" style="stroke:#181818;stroke-width:1.0;"/><text fill="#000000" font-family="sans-serif" font-size="13" lengthAdjust="spacing" textLength="42" x="2759" y="668.4951">&#171;uses&#187;</text></g><!--reverse link DatiNemici to DatiLivelli--><g id="link_DatiNemici_DatiLivelli"><path d="M2957.9192,612.127 C2958.5392,631.777 2959.26,654.74 2960,680 C2960.46,695.64 2960.9356,712.2425 2961.3914,728.3866 C2961.6193,736.4586 2961.8422,744.416 2962.0558,752.0812 C2962.0825,753.0394 2962.109,753.9929 2962.1354,754.9416 C2962.142,755.1788 2962.1486,755.4156 2962.1552,755.6522 " fill="none" id="DatiNemici-backto-DatiLivelli" style="stroke:#181818;stroke-width:1.0;"/><polygon fill="#181818" points="2957.73,606.13,2954.0158,615.2517,2957.8877,611.1275,2962.0118,614.9994,2957.73,606.13" style="stroke:#181818;stroke-width:1.0;"/><text fill="#000000" font-family="sans-serif" font-size="13" lengthAdjust="spacing" textLength="42" x="2960" y="668.4951">&#171;uses&#187;</text></g><!--reverse link DatiEventi to DatiLivelli--><g id="link_DatiEventi_DatiLivelli"><path d="M3077.4248,610.9361 C3061.9548,631.5161 3040.19,655.96 3011,672 C2995.49,680.52 2983.56,666.61 2972,680 C2966.8825,685.93 2963.7994,697.6019 2962.0592,711.8303 C2961.1891,718.9445 2960.6548,726.6979 2960.3698,734.6922 C2960.2273,738.6894 2960.1471,742.7468 2960.1184,746.8147 C2960.1041,748.8486 2960.1027,750.8852 2960.1128,752.9182 C2960.1178,753.9346 2960.1257,754.9502 2960.1364,755.9641 " fill="none" id="DatiEventi-backto-DatiLivelli" style="stroke:#181818;stroke-width:1.0;"/><polygon fill="#181818" points="3081.03,606.14,3072.4248,610.9306,3078.0257,610.1367,3078.8196,615.7376,3081.03,606.14" style="stroke:#181818;stroke-width:1.0;"/><text fill="#000000" font-family="sans-serif" font-size="13" lengthAdjust="spacing" textLength="42" x="3036" y="668.4951">&#171;uses&#187;</text></g><!--link DatiHistory to DatiLivelli--><g id="link_DatiHistory_DatiLivelli"><path d="M2881.15,824 C2899.1,824 2918.425,824 2933.8925,824 C2941.6263,824 2948.3956,824 2953.5466,824 C2954.1904,824 2954.809,824 2955.401,824 C2955.549,824 2949.6954,824 2949.84,824 " fill="none" id="DatiHistory-to-DatiLivelli" style="stroke:#181818;stroke-width:1.0;"/><polygon fill="#181818" points="2955.84,824,2946.84,820,2950.84,824,2946.84,828,2955.84,824" style="stroke:#181818;stroke-width:1.0;"/><text fill="#000000" font-family="sans-serif" font-size="13" lengthAdjust="spacing" textLength="42" x="2901.32" y="817.4951">&#171;uses&#187;</text></g><!--reverse link DatiGiocatori to DatiHistory--><g id="link_DatiGiocatori_DatiHistory"><path d="M2700.12,824 C2725.33,824 2748.3,824 2772.75,824 " fill="none" id="DatiGiocatori-backto-DatiHistory" style="stroke:#181818;stroke-width:1.0;"/><polygon fill="#181818" points="2694.12,824,2703.12,828,2699.12,824,2703.12,820,2694.12,824" style="stroke:#181818;stroke-width:1.0;"/><text fill="#000000" font-family="sans-serif" font-size="13" lengthAdjust="spacing" textLength="42" x="2712.5" y="817.4951">&#171;uses&#187;</text></g><!--link DatiBoss to DatiScenari--><!--reverse link DatiStatici to DatiDinamici--><!--reverse link ControllerMiddleware to ControllerGameLogic--><g id="link_ControllerMiddleware_ControllerGameLogic"><path d="M1887.8118,853.0563 C1868.4218,878.7063 1841.04,914.97 1821.63,940.66 " fill="none" id="ControllerMiddleware-backto-ControllerGameLogic" style="stroke:#181818;stroke-width:1.0;"/><polygon fill="#181818" points="1891.43,848.27,1882.8118,853.0373,1888.4148,852.2586,1889.1936,857.8616,1891.43,848.27" style="stroke:#181818;stroke-width:1.0;"/><text fill="#000000" font-family="sans-serif" font-size="13" lengthAdjust="spacing" textLength="42" x="1866" y="892.4951">&#171;uses&#187;</text></g><!--reverse link ControllerUserInput to ControllerGameLogic--><g id="link_ControllerUserInput_ControllerGameLogic"><path d="M1553.506,850.5844 C1610.366,876.3244 1696.29,915.23 1753.09,940.95 " fill="none" id="ControllerUserInput-backto-ControllerGameLogic" style="stroke:#181818;stroke-width:1.0;"/><polygon fill="#181818" points="1548.04,848.11,1554.5894,855.4656,1552.595,850.172,1557.8886,848.1776,1548.04,848.11" style="stroke:#181818;stroke-width:1.0;"/><text fill="#000000" font-family="sans-serif" font-size="13" lengthAdjust="spacing" textLength="42" x="1651" y="892.4951">&#171;uses&#187;</text></g><!--reverse link ControllerViewOutput to ControllerGameLogic--><g id="link_ControllerViewOutput_ControllerGameLogic"><path d="M1721.0055,853.0734 C1740.2055,878.7234 1767.32,914.97 1786.54,940.66 " fill="none" id="ControllerViewOutput-backto-ControllerGameLogic" style="stroke:#181818;stroke-width:1.0;"/><polygon fill="#181818" points="1717.41,848.27,1719.601,857.8721,1720.4063,852.2728,1726.0055,853.0781,1717.41,848.27" style="stroke:#181818;stroke-width:1.0;"/><text fill="#000000" font-family="sans-serif" font-size="13" lengthAdjust="spacing" textLength="42" x="1753" y="892.4951">&#171;uses&#187;</text></g><!--reverse link ControllerUserInput to Utente--><g id="link_ControllerUserInput_Utente"><path d="M1466.0451,852.233 C1434.9551,879.583 1388.47,920.48 1359.97,945.55 " fill="none" id="ControllerUserInput-backto-Utente" style="stroke:#181818;stroke-width:1.0;"/><polygon fill="#181818" points="1470.55,848.27,1461.1506,851.2112,1466.7959,851.5725,1466.4346,857.2178,1470.55,848.27" style="stroke:#181818;stroke-width:1.0;"/></g><!--reverse link Interfaccia to ControllerViewOutput--><g id="link_Interfaccia_ControllerViewOutput"><path d="M1283.1862,395.7917 C1283.5118,402.7792 1283.94,409.0337 1284.4995,416.0593 C1286.7378,444.1617 1290.9331,472.4398 1297.7712,499.8667 C1311.4475,554.7206 1335.695,606.17 1376,646 C1446.37,715.55 1511.53,628.48 1596,680 C1642.91,708.61 1675.07,767.13 1690.17,799.74 " fill="none" id="Interfaccia-backto-ControllerViewOutput" style="stroke:#181818;stroke-width:1.0;"/><polygon fill="#181818" points="1282.9536,389.7962,1279.3055,398.9445,1283.1474,394.7924,1287.2995,398.6343,1282.9536,389.7962" style="stroke:#181818;stroke-width:1.0;"/><text fill="#000000" font-family="sans-serif" font-size="13" lengthAdjust="spacing" textLength="42" x="1287" y="426.4951">&#171;uses&#187;</text></g><!--reverse link Modello to ControllerMiddleware--><g id="link_Modello_ControllerMiddleware"><path d="M2199.6137,601.0868 C2199.1499,601.7772 2201.3071,598.5103 2200.8104,599.2335 C2198.8237,602.1263 2196.5772,605.2659 2194.0988,608.5313 C2184.185,621.5925 2170.56,636.665 2155,646 C2099.72,679.16 2067.67,644.29 2014,680 C1968.23,710.45 1935.24,767.96 1919.46,799.99 " fill="none" id="Modello-backto-ControllerMiddleware" style="stroke:#181818;stroke-width:1.0;"/><polygon fill="#181818" points="2202.9345,596.0896,2194.6218,601.3715,2200.1672,600.2539,2201.2848,605.7992,2202.9345,596.0896" style="stroke:#181818;stroke-width:1.0;"/><text fill="#000000" font-family="sans-serif" font-size="13" lengthAdjust="spacing" textLength="42" x="2140" y="668.4951">&#171;uses&#187;</text></g><!--link Interfaccia to Controllore--><!--SRC=[dLZRRjj647tNLmpq8WkL7BIFWc70aOs4g6svKPoWAVgmfbRo0YINNIuLn4N-fT_GNyYFzSpkyYAAj8qAYArmvthcpEpG4oeBOIJTV5hIoOtUo6J-ISclywNEhD598irqCPhGdDpPWZR2YWTHIFUC9HUaCYlDLiIn4hGpOgjYuKuR4mjQwwtzodxsqcYIb1kT6wL748oIMb930D7y-8SsQgyA3TCqZeMLEssKn4EA4r4KQWmrX9rjD0aJFoehhIsD8465DS8gIlMcJE3kb1suo1CzS-72TzlRHkvrfYdNI85YdPOPeiTpc248Q6VWKj2M7vQP82CJyQHq9aaa2PwhZ8qadD0EKI0ZA7oKcOIye5G26rec2h_dQscGlS-uWf7oyiU_98k2vSUmPlMOJlJ3Vif-e_NLkzleTaKNzFPwjVpr-dTQlh_2_svN4IqZkeikbije1O6e5ev64wZU6GsSKaKvy1AxdU8Y_ZobImaV2huKClchL8K2MhUhMzgM6QSb4aKdcSw0jK4wmYUGo1sZYeovxlWqqfQBXVmBLLYPYYan7C47y9IKgWAbCOcB01-nGReopPNsHwwiUvdec6tDA0UNj4b55akISSp_JazFNLA_3CJVYjsvJ50g00eoQFFDUpqnAjPcWwA28q2PMKIV7_NyywEm-F6D0z_1m4KSozmwxqi3OXabs3TNbUapWuU2wsgjTFHXAYr2CnGbGdXw4bRxh8fOPi8etpuoAoVyKEwXemOqdZrK6P_2e7vJMDIZi2f-b2thwAWiLhb8_CDh_V3mZJOJWLWHyqySJs858rm0BP123tXAHPu3AhNdlcavq3dZh3mSSxe3neoPZngbOyuzAC2lqZoHp9tGAsYd563IcjjJxhwDHbiy0UEZPdQCwUyHqOIjChpSbliwCc_6Oyevu5i8Xau-1kEjlfx2Kl1mStLxxqspyNMj7cKA-ZDQUJCpb5jkc4tuEE4CCu76BokCIHG8Ei-bKwlSTYh28RZpx-vdp_dyl6MbYHGba1IbmDQ3gTw408wzDQ1qlBMiDVLwKm688Li2xC1MVMnt7Kw6hNAC6hpo4MAw-O7fBDCLk-inoseJV_YSPO7vYNQLlN6nq5t3vmCxtqV1M62KvERlKggGsPFmh98lKUbJjBw_k8w-VBdukFeGDQIwqOMxBpZXhUOo86i7ihl1Sc7GgPhlew1mybl9dUNTGa4aV5EKasaxnqvRHcnw0Aqc01uCXIF23dK08h7JViRku60PzCAJeQZ956Z3jmPnhpsRH7UsT7m4Hy-cVZRVwA_P_8YRLS4dVTtGKMgrNLkZZq-lqwn7TqjXy3u8cYz2SvnfDxeXGqUnTACSEQoF27qs_-DHRN2f_LdfyV0SVVVZVitSYFtjTCdx0Ez25eiQYMQgB30tKpa3EOfuHbRbEj4x9MPqmZiMxcb0DyNza8eTLgS-MnWAVBFddABRFtIVbABANbfVcKSYVbkSKIRJWy2hUym_KPceZzyhjpI4P10qhq_u8f5MDlKmL8JVbbWwbN_u5bUVltHTzRonTw7z8FkXXBbKUc57PIuPhu7A4RMqUMdX3ZTgSui2kJ01tGYnObhVcs6dhUvCbnLwjbw5q8nk5PfSXaLpqemn5Wwrh6POw-GgSEUWCTldN9lXuxjsLOR5bdwF7po_THKRFb_rt7EX_O_eXF6E1RjQ87WcCZZ6y6fxY4f5XHvO0Z4w4RaTuK5ZMqb9Rmyb5pJ65hupbMyihdXTIGXhSeulbXc0AT9rL9Fc5QuQsOL_q9eE52WtRYPhoqkWQPLevvJPNBkl0ZZaJnXbjVw1gAy67IKqBtDiEGS4MD3P6PRrulpyUVaEhrwh5jZQ4g_aQmHQqXNhZgttILUTqcEyPilSgDsZhJHgAySE6er4Rck5Lb8zNdoP3cVs-M5zAj6wtuz6_07lgr7VlBg_0-BNcE1nv_aDZ2IIN-ax1_TuyueoJBFEStvxMhanLm-nrfRbYTHqOqy0WP3CAzSBLkUk4Vf4qGxN6kTLluy7Z3TPl6oz9GlpCJ_R-Vi9qoGZbVW_D23fOcjAl3ktaezMGn7KSBqSG2Ewu1SdlZ3OSJ8fBO-o8GyDy2-xQCd2X_z6HUbtrKUiqTeDhFxoXDReH_UGyQ_JRs7pVzJRYRUx1nmNCPgAxXrkev7__Pp_qO3PkbaFtcDRpWRG2AxgMxnFmtN5sRpkLwWS-laF]--></g></svg>